<?xml version="1.0" encoding="UTF-8"?>
<svg version="1.1" xmlns="http://www.w3.org/2000/svg" width="250" height="250">
<path d="M0 0 C1.30479813 -0.00361794 1.30479813 -0.00361794 2.63595581 -0.00730896 C4.4664976 -0.00633322 6.2970699 0.00699497 8.12744141 0.03198242 C10.92842601 0.06639075 13.72627026 0.05260386 16.52734375 0.03320312 C18.30990924 0.04009941 20.09246662 0.04976983 21.875 0.0625 C23.12822556 0.0550602 23.12822556 0.0550602 24.4067688 0.04747009 C27.97827794 0.11987457 30.23135348 0.29879324 33.36279297 2.10180664 C37.71191311 9.72418093 33.64191444 20.60170097 31.9609375 28.7265625 C31.66871429 30.17086186 31.37726378 31.61531776 31.08654785 33.05992126 C30.32483898 36.83434637 29.55275278 40.60657334 28.77838135 44.37841797 C27.84846385 48.9190897 26.9316418 53.46242187 26.0125885 58.00530243 C24.61989977 64.88191095 23.21076545 71.75496198 21.8046875 78.62890625 C11.9046875 78.62890625 2.0046875 78.62890625 -8.1953125 78.62890625 C-8.8553125 82.58890625 -9.5153125 86.54890625 -10.1953125 90.62890625 C-10.66660048 93.04167116 -11.15422024 95.45138694 -11.66796875 97.85546875 C-11.92771484 99.07105469 -12.18746094 100.28664063 -12.45507812 101.5390625 C-12.71998047 102.76496094 -12.98488281 103.99085937 -13.2578125 105.25390625 C-13.6609668 107.15076172 -13.6609668 107.15076172 -14.07226562 109.0859375 C-14.45995117 110.88998047 -14.45995117 110.88998047 -14.85546875 112.73046875 C-15.20557007 114.35976318 -15.20557007 114.35976318 -15.56274414 116.02197266 C-16.1953125 118.62890625 -16.1953125 118.62890625 -17.1953125 120.62890625 C-22.20876938 118.93112205 -26.40140228 116.09927312 -30.8203125 113.25390625 C-32.50770145 112.17690932 -34.19520503 111.10009199 -35.8828125 110.0234375 C-36.75164062 109.46736816 -37.62046875 108.91129883 -38.515625 108.33837891 C-41.21499936 106.61634727 -43.92224759 104.90748057 -46.6328125 103.203125 C-47.50212402 102.65640137 -48.37143555 102.10967773 -49.26708984 101.54638672 C-50.94937221 100.48888775 -52.63198157 99.43190875 -54.31494141 98.37548828 C-55.07210449 97.89837402 -55.82926758 97.42125977 -56.609375 96.9296875 C-57.2792041 96.50856689 -57.9490332 96.08744629 -58.63916016 95.65356445 C-60.1953125 94.62890625 -60.1953125 94.62890625 -61.1953125 93.62890625 C-61.1308858 92.02116719 -60.99362936 90.41607402 -60.8203125 88.81640625 C-60.73007813 87.94371094 -60.63984375 87.07101563 -60.546875 86.171875 C-60.1953125 83.62890625 -60.1953125 83.62890625 -59.1953125 79.62890625 C-64.1453125 79.62890625 -69.0953125 79.62890625 -74.1953125 79.62890625 C-74.48374023 81.09787354 -74.77216797 82.56684082 -75.06933594 84.08032227 C-78.09372452 99.39221517 -81.30859875 114.65666855 -84.64453125 129.90356445 C-85.46197203 133.64260838 -86.27409018 137.3827849 -87.0859375 141.12304688 C-87.60645753 143.50918295 -88.12727875 145.89525335 -88.6484375 148.28125 C-89.01089569 149.95271339 -89.01089569 149.95271339 -89.38067627 151.65794373 C-89.6047113 152.67824173 -89.82874634 153.69853973 -90.05957031 154.74975586 C-90.25544739 155.64697861 -90.45132446 156.54420135 -90.65313721 157.46861267 C-91.1953125 159.62890625 -91.1953125 159.62890625 -92.1953125 161.62890625 C-87.2453125 161.29890625 -82.2953125 160.96890625 -77.1953125 160.62890625 C-76.71320313 158.42589844 -76.23109375 156.22289062 -75.734375 153.953125 C-75.2625899 151.81809948 -74.78862811 149.68356812 -74.31445312 147.54907227 C-73.9863261 146.06650228 -73.66046083 144.58342981 -73.33691406 143.09985352 C-72.87119163 140.96624478 -72.39733861 138.83458125 -71.921875 136.703125 C-71.63908691 135.42010498 -71.35629883 134.13708496 -71.06494141 132.81518555 C-70.1953125 129.62890625 -70.1953125 129.62890625 -68.1953125 126.62890625 C-58.73409587 132.37119783 -49.30288117 138.15636288 -39.9453125 144.06640625 C-39.16051514 144.56172852 -38.37571777 145.05705078 -37.56713867 145.56738281 C-33.4062851 148.20209618 -29.28002352 150.8775802 -25.1953125 153.62890625 C-25.78637526 162.6426134 -27.69285462 171.28252644 -29.63378906 180.08154297 C-30.19981912 182.64935061 -30.75678543 185.21900471 -31.3125 187.7890625 C-31.66874778 189.42329119 -32.02550006 191.05741001 -32.3828125 192.69140625 C-32.54950439 193.45904297 -32.71619629 194.22667969 -32.88793945 195.01757812 C-34.07910834 200.39649793 -34.07910834 200.39649793 -35.1953125 202.62890625 C-48.40807343 202.69839154 -61.62079094 202.75171017 -74.83369732 202.78434277 C-80.96886838 202.80000411 -87.10391451 202.82125125 -93.23901367 202.85522461 C-99.15880882 202.88780088 -105.07848373 202.90575573 -110.99836159 202.91353798 C-113.25781968 202.91908457 -115.51727113 202.92991556 -117.77667809 202.94609642 C-120.93939859 202.96784728 -124.10162113 202.9708741 -127.2644043 202.96948242 C-128.20020325 202.98026825 -129.1360022 202.99105408 -130.10015869 203.00216675 C-136.78341732 202.97030781 -140.03510726 201.69092035 -144.9453125 197.00390625 C-147.85949345 193.23503014 -148.23176568 189.28881074 -148.1953125 184.62890625 C-147.56684038 179.90891957 -146.53181357 175.29121202 -145.47900391 170.65136719 C-145.17414071 169.25942156 -144.87053013 167.8672011 -144.56806946 166.47473145 C-143.74795469 162.71598082 -142.91051974 158.96128325 -142.06983614 155.20708752 C-141.19120444 151.26923759 -140.32882452 147.32783162 -139.46469116 143.38677979 C-137.82677686 135.92836249 -136.17454557 128.47319471 -134.51701295 121.01911569 C-132.63430722 112.54930649 -130.76706878 104.07611272 -128.90137601 95.6025424 C-126.6267674 85.27201189 -124.35014768 74.94193819 -122.06069946 64.61468506 C-121.89899317 63.88510479 -121.73728687 63.15552453 -121.57068038 62.40383577 C-120.81390927 58.98990416 -120.05653406 55.57610839 -119.29814148 52.16253662 C-119.03448288 50.97385986 -118.77082428 49.78518311 -118.49917603 48.56048584 C-118.1557035 47.01419809 -118.1557035 47.01419809 -117.80529213 45.43667221 C-117.24115074 42.83990191 -116.71646033 40.23464539 -116.1953125 37.62890625 C-84.8453125 37.62890625 -53.4953125 37.62890625 -21.1953125 37.62890625 C-20.5353125 33.00890625 -19.8753125 28.38890625 -19.1953125 23.62890625 C-18.657196 20.41732916 -18.09660118 17.25143643 -17.4453125 14.06640625 C-17.31382812 13.31294922 -17.18234375 12.55949219 -17.046875 11.78320312 C-16.89476562 11.05037109 -16.74265625 10.31753906 -16.5859375 9.5625 C-16.46250977 8.92368896 -16.33908203 8.28487793 -16.21191406 7.62670898 C-12.61291665 0.55403947 -7.18339414 -0.11454764 0 0 Z M-6.1953125 24.62890625 C-6.87464844 25.01046875 -7.55398437 25.39203125 -8.25390625 25.78515625 C-9.90964379 26.71796613 -11.55376868 27.67133902 -13.1953125 28.62890625 C-13.1953125 28.95890625 -13.1953125 29.28890625 -13.1953125 29.62890625 C-5.9353125 29.62890625 1.3246875 29.62890625 8.8046875 29.62890625 C9.1346875 26.65890625 9.4646875 23.68890625 9.8046875 20.62890625 C3.23236263 20.15945447 -0.5674625 21.31708995 -6.1953125 24.62890625 Z M-1.1953125 48.62890625 C-1.8553125 51.92890625 -2.5153125 55.22890625 -3.1953125 58.62890625 C-0.32080267 58.87939261 -0.32080267 58.87939261 2.8046875 58.62890625 C3.81638219 57.64073934 4.81407656 56.63820797 5.8046875 55.62890625 C7.67252816 54.51793301 9.57148022 53.45825128 11.4921875 52.44140625 C12.48605469 51.91160156 13.47992188 51.38179687 14.50390625 50.8359375 C15.26316406 50.43761719 16.02242187 50.03929687 16.8046875 49.62890625 C16.8046875 49.29890625 16.8046875 48.96890625 16.8046875 48.62890625 C10.8646875 48.62890625 4.9246875 48.62890625 -1.1953125 48.62890625 Z " fill="#010101" transform="translate(190.1953125,21.37109375)"/>
<path d="M0 0 C1.30479813 -0.00361794 1.30479813 -0.00361794 2.63595581 -0.00730896 C4.4664976 -0.00633322 6.2970699 0.00699497 8.12744141 0.03198242 C10.92842601 0.06639075 13.72627026 0.05260386 16.52734375 0.03320312 C18.30990924 0.04009941 20.09246662 0.04976983 21.875 0.0625 C23.12822556 0.0550602 23.12822556 0.0550602 24.4067688 0.04747009 C27.97827794 0.11987457 30.23135348 0.29879324 33.36279297 2.10180664 C37.71191311 9.72418093 33.64191444 20.60170097 31.9609375 28.7265625 C31.66871429 30.17086186 31.37726378 31.61531776 31.08654785 33.05992126 C30.32483898 36.83434637 29.55275278 40.60657334 28.77838135 44.37841797 C27.84846385 48.9190897 26.9316418 53.46242187 26.0125885 58.00530243 C24.61989977 64.88191095 23.21076545 71.75496198 21.8046875 78.62890625 C11.9046875 78.62890625 2.0046875 78.62890625 -8.1953125 78.62890625 C-8.8553125 82.58890625 -9.5153125 86.54890625 -10.1953125 90.62890625 C-10.66660048 93.04167116 -11.15422024 95.45138694 -11.66796875 97.85546875 C-11.92771484 99.07105469 -12.18746094 100.28664063 -12.45507812 101.5390625 C-12.71998047 102.76496094 -12.98488281 103.99085937 -13.2578125 105.25390625 C-13.6609668 107.15076172 -13.6609668 107.15076172 -14.07226562 109.0859375 C-14.45995117 110.88998047 -14.45995117 110.88998047 -14.85546875 112.73046875 C-15.20557007 114.35976318 -15.20557007 114.35976318 -15.56274414 116.02197266 C-16.1953125 118.62890625 -16.1953125 118.62890625 -17.1953125 120.62890625 C-22.20876938 118.93112205 -26.40140228 116.09927312 -30.8203125 113.25390625 C-32.50770145 112.17690932 -34.19520503 111.10009199 -35.8828125 110.0234375 C-36.75164062 109.46736816 -37.62046875 108.91129883 -38.515625 108.33837891 C-41.21499936 106.61634727 -43.92224759 104.90748057 -46.6328125 103.203125 C-47.50212402 102.65640137 -48.37143555 102.10967773 -49.26708984 101.54638672 C-50.94937221 100.48888775 -52.63198157 99.43190875 -54.31494141 98.37548828 C-55.07210449 97.89837402 -55.82926758 97.42125977 -56.609375 96.9296875 C-57.2792041 96.50856689 -57.9490332 96.08744629 -58.63916016 95.65356445 C-60.1953125 94.62890625 -60.1953125 94.62890625 -61.1953125 93.62890625 C-61.1308858 92.02116719 -60.99362936 90.41607402 -60.8203125 88.81640625 C-60.73007813 87.94371094 -60.63984375 87.07101563 -60.546875 86.171875 C-60.1953125 83.62890625 -60.1953125 83.62890625 -59.1953125 79.62890625 C-64.1453125 79.62890625 -69.0953125 79.62890625 -74.1953125 79.62890625 C-74.48374023 81.09787354 -74.77216797 82.56684082 -75.06933594 84.08032227 C-78.09372452 99.39221517 -81.30859875 114.65666855 -84.64453125 129.90356445 C-85.46197203 133.64260838 -86.27409018 137.3827849 -87.0859375 141.12304688 C-87.60645753 143.50918295 -88.12727875 145.89525335 -88.6484375 148.28125 C-89.01089569 149.95271339 -89.01089569 149.95271339 -89.38067627 151.65794373 C-89.6047113 152.67824173 -89.82874634 153.69853973 -90.05957031 154.74975586 C-90.25544739 155.64697861 -90.45132446 156.54420135 -90.65313721 157.46861267 C-91.1953125 159.62890625 -91.1953125 159.62890625 -92.1953125 161.62890625 C-87.2453125 161.29890625 -82.2953125 160.96890625 -77.1953125 160.62890625 C-76.71320313 158.42589844 -76.23109375 156.22289062 -75.734375 153.953125 C-75.2625899 151.81809948 -74.78862811 149.68356812 -74.31445312 147.54907227 C-73.9863261 146.06650228 -73.66046083 144.58342981 -73.33691406 143.09985352 C-72.87119163 140.96624478 -72.39733861 138.83458125 -71.921875 136.703125 C-71.63908691 135.42010498 -71.35629883 134.13708496 -71.06494141 132.81518555 C-70.1953125 129.62890625 -70.1953125 129.62890625 -68.1953125 126.62890625 C-58.73409587 132.37119783 -49.30288117 138.15636288 -39.9453125 144.06640625 C-39.16051514 144.56172852 -38.37571777 145.05705078 -37.56713867 145.56738281 C-33.4062851 148.20209618 -29.28002352 150.8775802 -25.1953125 153.62890625 C-25.78637526 162.6426134 -27.69285462 171.28252644 -29.63378906 180.08154297 C-30.19981912 182.64935061 -30.75678543 185.21900471 -31.3125 187.7890625 C-31.66874778 189.42329119 -32.02550006 191.05741001 -32.3828125 192.69140625 C-32.54950439 193.45904297 -32.71619629 194.22667969 -32.88793945 195.01757812 C-34.07910834 200.39649793 -34.07910834 200.39649793 -35.1953125 202.62890625 C-48.40807343 202.69839154 -61.62079094 202.75171017 -74.83369732 202.78434277 C-80.96886838 202.80000411 -87.10391451 202.82125125 -93.23901367 202.85522461 C-99.15880882 202.88780088 -105.07848373 202.90575573 -110.99836159 202.91353798 C-113.25781968 202.91908457 -115.51727113 202.92991556 -117.77667809 202.94609642 C-120.93939859 202.96784728 -124.10162113 202.9708741 -127.2644043 202.96948242 C-128.20020325 202.98026825 -129.1360022 202.99105408 -130.10015869 203.00216675 C-136.78341732 202.97030781 -140.03510726 201.69092035 -144.9453125 197.00390625 C-147.85949345 193.23503014 -148.23176568 189.28881074 -148.1953125 184.62890625 C-147.56684038 179.90891957 -146.53181357 175.29121202 -145.47900391 170.65136719 C-145.17414071 169.25942156 -144.87053013 167.8672011 -144.56806946 166.47473145 C-143.74795469 162.71598082 -142.91051974 158.96128325 -142.06983614 155.20708752 C-141.19120444 151.26923759 -140.32882452 147.32783162 -139.46469116 143.38677979 C-137.82677686 135.92836249 -136.17454557 128.47319471 -134.51701295 121.01911569 C-132.63430722 112.54930649 -130.76706878 104.07611272 -128.90137601 95.6025424 C-126.6267674 85.27201189 -124.35014768 74.94193819 -122.06069946 64.61468506 C-121.89899317 63.88510479 -121.73728687 63.15552453 -121.57068038 62.40383577 C-120.81390927 58.98990416 -120.05653406 55.57610839 -119.29814148 52.16253662 C-119.03448288 50.97385986 -118.77082428 49.78518311 -118.49917603 48.56048584 C-118.1557035 47.01419809 -118.1557035 47.01419809 -117.80529213 45.43667221 C-117.24115074 42.83990191 -116.71646033 40.23464539 -116.1953125 37.62890625 C-84.8453125 37.62890625 -53.4953125 37.62890625 -21.1953125 37.62890625 C-20.5353125 33.00890625 -19.8753125 28.38890625 -19.1953125 23.62890625 C-18.657196 20.41732916 -18.09660118 17.25143643 -17.4453125 14.06640625 C-17.31382812 13.31294922 -17.18234375 12.55949219 -17.046875 11.78320312 C-16.89476562 11.05037109 -16.74265625 10.31753906 -16.5859375 9.5625 C-16.46250977 8.92368896 -16.33908203 8.28487793 -16.21191406 7.62670898 C-12.61291665 0.55403947 -7.18339414 -0.11454764 0 0 Z M-6.1953125 24.62890625 C-6.87464844 25.01046875 -7.55398437 25.39203125 -8.25390625 25.78515625 C-9.90964379 26.71796613 -11.55376868 27.67133902 -13.1953125 28.62890625 C-13.1953125 28.95890625 -13.1953125 29.28890625 -13.1953125 29.62890625 C-5.9353125 29.62890625 1.3246875 29.62890625 8.8046875 29.62890625 C9.1346875 26.65890625 9.4646875 23.68890625 9.8046875 20.62890625 C3.23236263 20.15945447 -0.5674625 21.31708995 -6.1953125 24.62890625 Z M-111.1953125 43.62890625 C-113.5053125 54.18890625 -115.8153125 64.74890625 -118.1953125 75.62890625 C-121.6328125 91.31640625 -121.6328125 91.31640625 -122.609375 95.77294922 C-124.13012208 102.72479873 -125.63901037 109.67902812 -127.1328125 116.63671875 C-127.63204496 118.95990462 -128.13139602 121.28306493 -128.63085938 123.60620117 C-128.96443408 125.15806988 -129.29776896 126.70999016 -129.63085938 128.26196289 C-131.50616631 136.99041355 -133.42638033 145.70589507 -135.4453125 154.40234375 C-135.62953262 155.19773056 -135.81375275 155.99311737 -136.0035553 156.81260681 C-136.88330879 160.60617397 -137.77032992 164.3977983 -138.66967773 168.18676758 C-142.40105755 180.8580828 -142.40105755 180.8580828 -140.3828125 193.19140625 C-138.43462675 195.66215422 -138.43462675 195.66215422 -136.1953125 196.62890625 C-133.17442786 196.72241236 -130.17673128 196.75462867 -127.15576172 196.74243164 C-126.21912689 196.74257767 -125.28249207 196.74272369 -124.31747437 196.74287415 C-121.21162628 196.74217569 -118.10583765 196.7343864 -115 196.7265625 C-112.85051506 196.72469808 -110.7010297 196.72327429 -108.55154419 196.72227478 C-102.88636101 196.71845147 -97.22120335 196.70862276 -91.55603027 196.6975708 C-85.77824244 196.68735269 -80.0004505 196.6827763 -74.22265625 196.67773438 C-62.8801971 196.66700034 -51.53775692 196.64992614 -40.1953125 196.62890625 C-38.60024952 192.76996041 -37.55794515 189.10563481 -36.72265625 185.0078125 C-36.46291016 183.74259766 -36.20316406 182.47738281 -35.93554688 181.17382812 C-35.66796012 179.84635591 -35.40038207 178.51888193 -35.1328125 177.19140625 C-34.86173075 175.86775602 -34.59024998 174.54418744 -34.31835938 173.22070312 C-33.19191505 167.70084501 -32.09346323 162.19111946 -31.1953125 156.62890625 C-32.22301758 155.98659058 -32.22301758 155.98659058 -33.27148438 155.33129883 C-38.56901042 152.02034505 -43.86653646 148.70939128 -49.1640625 145.3984375 C-50.19660156 144.75471191 -51.22914063 144.11098633 -52.29296875 143.44775391 C-54.09843443 142.3163004 -55.89890008 141.17677691 -57.69140625 140.02490234 C-61.16462084 137.52507775 -61.16462084 137.52507775 -65.1953125 136.62890625 C-67.97568686 146.57897694 -70.26226832 156.48042429 -72.1953125 166.62890625 C-85.5603125 167.12390625 -85.5603125 167.12390625 -99.1953125 167.62890625 C-98.3703125 164.12265625 -97.5453125 160.61640625 -96.6953125 157.00390625 C-93.84554763 144.76432622 -91.24388228 132.47870422 -88.68505859 120.17553711 C-86.25670284 108.50755546 -83.71300641 96.88039309 -80.921875 85.29296875 C-80.69242188 84.32875 -80.46296875 83.36453125 -80.2265625 82.37109375 C-80.02611328 81.54464355 -79.82566406 80.71819336 -79.61914062 79.86669922 C-79.0712542 77.35347995 -79.0712542 77.35347995 -79.1953125 73.62890625 C-70.2853125 73.62890625 -61.3753125 73.62890625 -52.1953125 73.62890625 C-53.00911458 77.14453125 -53.82291667 80.66015625 -54.63671875 84.17578125 C-55.15551031 87.38285633 -55.33569767 88.70505879 -54.1953125 91.62890625 C-52.65189166 93.03051504 -52.65189166 93.03051504 -50.65234375 94.109375 C-49.91419434 94.54725342 -49.17604492 94.98513184 -48.41552734 95.4362793 C-47.62098145 95.89172119 -46.82643555 96.34716309 -46.0078125 96.81640625 C-44.37023681 97.78370697 -42.73352886 98.7524781 -41.09765625 99.72265625 C-40.2763623 100.20605469 -39.45506836 100.68945312 -38.60888672 101.1875 C-35.04350518 103.316775 -31.5530613 105.55525624 -28.0703125 107.81640625 C-27.47323486 108.20272217 -26.87615723 108.58903809 -26.26098633 108.98706055 C-24.90453653 109.86578739 -23.54971192 110.74702239 -22.1953125 111.62890625 C-19.57631699 109.00991074 -19.44898805 107.02871131 -18.6875 103.4140625 C-18.42324219 102.17076172 -18.15898437 100.92746094 -17.88671875 99.64648438 C-17.75281738 98.99752197 -17.61891602 98.34855957 -17.48095703 97.67993164 C-17.07225897 95.70083193 -16.65236664 93.72437018 -16.23046875 91.74804688 C-14.75116403 85.24175027 -14.75116403 85.24175027 -14.1953125 78.62890625 C-19.1453125 78.62890625 -24.0953125 78.62890625 -29.1953125 78.62890625 C-28.2053125 74.17390625 -28.2053125 74.17390625 -27.1953125 69.62890625 C-24.7203125 56.75890625 -24.7203125 56.75890625 -22.1953125 43.62890625 C-51.5653125 43.62890625 -80.9353125 43.62890625 -111.1953125 43.62890625 Z M-1.1953125 48.62890625 C-1.8553125 51.92890625 -2.5153125 55.22890625 -3.1953125 58.62890625 C-0.32080267 58.87939261 -0.32080267 58.87939261 2.8046875 58.62890625 C3.81638219 57.64073934 4.81407656 56.63820797 5.8046875 55.62890625 C7.67252816 54.51793301 9.57148022 53.45825128 11.4921875 52.44140625 C12.48605469 51.91160156 13.47992188 51.38179687 14.50390625 50.8359375 C15.26316406 50.43761719 16.02242187 50.03929687 16.8046875 49.62890625 C16.8046875 49.29890625 16.8046875 48.96890625 16.8046875 48.62890625 C10.8646875 48.62890625 4.9246875 48.62890625 -1.1953125 48.62890625 Z " fill="#F7F8F9" transform="translate(190.1953125,21.37109375)"/>
<path d="M0 0 C1.28498634 -0.00074776 1.28498634 -0.00074776 2.59593201 -0.00151062 C4.40569378 0.00082886 6.21545887 0.01055004 8.02514648 0.02709961 C10.8015639 0.05072144 13.57702308 0.04765619 16.35351562 0.04101562 C18.11068283 0.04659139 19.86784598 0.05370063 21.625 0.0625 C22.45834366 0.06158859 23.29168732 0.06067719 24.15028381 0.05973816 C30.01506029 0.13224779 30.01506029 0.13224779 32.24609375 2.36328125 C32.46065196 10.32366258 30.45692522 18.52669755 28.93359375 26.30078125 C28.73314453 27.41001953 28.53269531 28.51925781 28.32617188 29.66210938 C28.01389648 31.26022461 28.01389648 31.26022461 27.6953125 32.890625 C27.42207153 34.32523071 27.42207153 34.32523071 27.14331055 35.78881836 C26.04078632 38.95238787 24.93130257 40.3619782 22.24609375 42.36328125 C19.49707031 42.90917969 19.49707031 42.90917969 16.38671875 42.97265625 C15.27167969 43.00488281 14.15664062 43.03710938 13.0078125 43.0703125 C11.84894531 43.08449219 10.69007813 43.09867188 9.49609375 43.11328125 C8.32175781 43.14292969 7.14742187 43.17257813 5.9375 43.203125 C3.04029553 43.27378852 0.1438942 43.32650391 -2.75390625 43.36328125 C-2.82867187 44.12253906 -2.9034375 44.88179687 -2.98046875 45.6640625 C-3.37942647 48.67971351 -3.8298158 51.46266401 -4.75390625 54.36328125 C-7.87890625 56.55078125 -7.87890625 56.55078125 -10.75390625 57.36328125 C-8.1896211 57.498878 -5.63255409 57.59761313 -3.06640625 57.67578125 C-1.98456055 57.73862305 -1.98456055 57.73862305 -0.88085938 57.80273438 C3.19954313 57.89589425 4.69958306 57.84330251 7.87890625 55.05078125 C8.66007812 54.16390625 9.44125 53.27703125 10.24609375 52.36328125 C13.2890625 50.5625 13.2890625 50.5625 16.43359375 49.05078125 C17.47902344 48.53902344 18.52445313 48.02726562 19.6015625 47.5 C22.24609375 46.36328125 22.24609375 46.36328125 24.24609375 46.36328125 C22.59609375 54.94328125 20.94609375 63.52328125 19.24609375 72.36328125 C4.72609375 72.36328125 -9.79390625 72.36328125 -24.75390625 72.36328125 C-23.94471568 63.46218499 -22.75140354 55.14120334 -21.00390625 46.42578125 C-20.76169882 45.11263388 -20.51951122 43.79948286 -20.27734375 42.48632812 C-20.02726563 41.24044922 -19.7771875 39.99457031 -19.51953125 38.7109375 C-19.30071289 37.58695557 -19.08189453 36.46297363 -18.85644531 35.30493164 C-17.48079335 31.63459717 -16.10170653 30.36268262 -12.75390625 28.36328125 C-9.9831543 27.81738281 -9.9831543 27.81738281 -7.015625 27.75390625 C-5.41557617 27.70556641 -5.41557617 27.70556641 -3.78320312 27.65625 C-2.68041016 27.64207031 -1.57761719 27.62789062 -0.44140625 27.61328125 C0.68072266 27.58363281 1.80285156 27.55398437 2.95898438 27.5234375 C5.72142582 27.45290708 8.48303149 27.40012632 11.24609375 27.36328125 C11.3440625 26.66460937 11.44203125 25.9659375 11.54296875 25.24609375 C11.6925 24.33601563 11.84203125 23.4259375 11.99609375 22.48828125 C12.1353125 21.58335938 12.27453125 20.6784375 12.41796875 19.74609375 C13.24609375 17.36328125 13.24609375 17.36328125 15.32421875 16.04296875 C15.9584375 15.81867187 16.59265625 15.594375 17.24609375 15.36328125 C6.04199128 14.30323476 -1.21266015 15.70344676 -10.83984375 21.61328125 C-13.75390625 23.36328125 -13.75390625 23.36328125 -15.75390625 23.36328125 C-15.16873783 20.08875209 -14.55753321 16.81961484 -13.94140625 13.55078125 C-13.77576172 12.62201172 -13.61011719 11.69324219 -13.43945312 10.73632812 C-13.26865234 9.84365234 -13.09785156 8.95097656 -12.921875 8.03125 C-12.77000732 7.20906982 -12.61813965 6.38688965 -12.46166992 5.53979492 C-10.44858736 -0.65083325 -5.6691758 -0.06280579 0 0 Z " fill="#1A92C8" transform="translate(189.75390625,24.63671875)"/>
<path d="M0 0 C-0.41693203 8.10860917 -1.08539631 16.35227919 -4 24 C-4.99 24.66 -5.98 25.32 -7 26 C-6.58395002 19.90271584 -5.71250413 13.93400131 -4.5625 7.9375 C-4.31628906 6.64714844 -4.07007813 5.35679688 -3.81640625 4.02734375 C-3.41228516 2.52880859 -3.41228516 2.52880859 -3 1 C-1 0 -1 0 0 0 Z " fill="#D7DEE1" transform="translate(169,70)"/>
<path d="M0 0 C-0.33 2.97 -0.66 5.94 -1 9 C-1.66 9 -2.32 9 -3 9 C-3 6.36 -3 3.72 -3 1 C-1 0 -1 0 0 0 Z " fill="#E7EBED" transform="translate(169,70)"/>
</svg>
